<mxfile host="Electron" modified="2024-02-07T13:21:40.585Z" agent="Mozilla/5.0 (Windows NT 10.0; Win64; x64) AppleWebKit/537.36 (KHTML, like Gecko) draw.io/23.0.2 Chrome/120.0.6099.109 Electron/28.1.0 Safari/537.36" etag="af38oSMr8sZD6BkkSvBz" version="23.0.2" type="device">
  <diagram name="ページ1" id="LE8fIzdrHe0wcv1LTvfw">
    <mxGraphModel dx="866" dy="518" grid="1" gridSize="10" guides="1" tooltips="1" connect="1" arrows="1" fold="1" page="1" pageScale="1" pageWidth="1600" pageHeight="1200" math="0" shadow="0">
      <root>
        <mxCell id="0" />
        <mxCell id="cFaB45KztUIKXS-_cTrr-4" value="背景" style="locked=1;" parent="0" visible="0" />
        <mxCell id="cFaB45KztUIKXS-_cTrr-5" value="" style="rounded=0;whiteSpace=wrap;html=1;strokeWidth=3;" parent="cFaB45KztUIKXS-_cTrr-4" vertex="1">
          <mxGeometry x="1" y="1" width="1595" height="1180" as="geometry" />
        </mxCell>
        <mxCell id="cFaB45KztUIKXS-_cTrr-6" value="" style="rounded=0;whiteSpace=wrap;html=1;fillColor=#B3B3B3;fontColor=#333333;strokeColor=#666666;" parent="cFaB45KztUIKXS-_cTrr-4" vertex="1">
          <mxGeometry width="1595" height="60" as="geometry" />
        </mxCell>
        <mxCell id="cFaB45KztUIKXS-_cTrr-7" value="&lt;font style=&quot;font-size: 48px;&quot;&gt;×&lt;/font&gt;" style="rounded=0;whiteSpace=wrap;html=1;" parent="cFaB45KztUIKXS-_cTrr-4" vertex="1">
          <mxGeometry x="1550" y="10" width="40" height="40" as="geometry" />
        </mxCell>
        <mxCell id="cFaB45KztUIKXS-_cTrr-8" value="" style="rounded=0;whiteSpace=wrap;html=1;" parent="cFaB45KztUIKXS-_cTrr-4" vertex="1">
          <mxGeometry x="830" y="670" width="120" height="60" as="geometry" />
        </mxCell>
        <mxCell id="cFaB45KztUIKXS-_cTrr-9" value="ウインドウ" style="locked=1;" parent="0" />
        <mxCell id="cFaB45KztUIKXS-_cTrr-10" value="" style="rounded=0;whiteSpace=wrap;html=1;strokeWidth=3;" parent="cFaB45KztUIKXS-_cTrr-9" vertex="1">
          <mxGeometry x="1" y="1" width="1595" height="1179" as="geometry" />
        </mxCell>
        <mxCell id="cFaB45KztUIKXS-_cTrr-11" value="" style="rounded=0;whiteSpace=wrap;html=1;fillColor=#B3B3B3;fontColor=#333333;strokeColor=#666666;" parent="cFaB45KztUIKXS-_cTrr-9" vertex="1">
          <mxGeometry width="1595" height="60" as="geometry" />
        </mxCell>
        <mxCell id="cFaB45KztUIKXS-_cTrr-12" value="&lt;font style=&quot;font-size: 48px;&quot;&gt;×&lt;/font&gt;" style="rounded=0;whiteSpace=wrap;html=1;" parent="cFaB45KztUIKXS-_cTrr-9" vertex="1">
          <mxGeometry x="1550" y="10" width="40" height="40" as="geometry" />
        </mxCell>
        <mxCell id="cFaB45KztUIKXS-_cTrr-14" value="名称未設定レイヤ" style="" parent="0" />
        <mxCell id="ColBS6U00L5lofz6xfWA-14" value="" style="rounded=0;whiteSpace=wrap;html=1;strokeWidth=3;" parent="cFaB45KztUIKXS-_cTrr-14" vertex="1">
          <mxGeometry x="50" y="290" width="1460" height="620" as="geometry" />
        </mxCell>
        <mxCell id="-aRjbIlAvJyihVMSlcDC-142" value="&lt;span style=&quot;font-size: 30px;&quot;&gt;ファイル選択&lt;/span&gt;" style="rounded=1;whiteSpace=wrap;html=1;fillColor=#FFFFFF;strokeWidth=3;" parent="cFaB45KztUIKXS-_cTrr-14" vertex="1">
          <mxGeometry x="956" y="130" width="210" height="60" as="geometry" />
        </mxCell>
        <mxCell id="XEzsyxBTXAWv2MW_PeDP-0" value="&lt;span style=&quot;font-size: 30px;&quot;&gt;読み取りたいCSVファイルを指定してください&lt;/span&gt;" style="text;html=1;strokeColor=none;fillColor=none;align=left;verticalAlign=middle;whiteSpace=wrap;rounded=0;" parent="cFaB45KztUIKXS-_cTrr-14" vertex="1">
          <mxGeometry x="20" y="80" width="720" height="40" as="geometry" />
        </mxCell>
        <mxCell id="XEzsyxBTXAWv2MW_PeDP-2" value="" style="rounded=0;whiteSpace=wrap;html=1;" parent="cFaB45KztUIKXS-_cTrr-14" vertex="1">
          <mxGeometry x="50" y="130" width="830" height="60" as="geometry" />
        </mxCell>
        <mxCell id="ColBS6U00L5lofz6xfWA-0" value="&lt;span style=&quot;font-size: 30px;&quot;&gt;発行年月日&lt;/span&gt;" style="rounded=0;whiteSpace=wrap;html=1;align=right;dashed=1;dashPattern=8 8;verticalAlign=bottom;" parent="cFaB45KztUIKXS-_cTrr-14" vertex="1">
          <mxGeometry x="70" y="357" width="330" height="46" as="geometry" />
        </mxCell>
        <mxCell id="ColBS6U00L5lofz6xfWA-1" value="&lt;font style=&quot;font-size: 30px;&quot;&gt;20221201&lt;/font&gt;" style="rounded=0;whiteSpace=wrap;html=1;align=right;fillColor=#CCCCCC;" parent="cFaB45KztUIKXS-_cTrr-14" vertex="1">
          <mxGeometry x="410" y="354" width="250" height="48" as="geometry" />
        </mxCell>
        <mxCell id="ColBS6U00L5lofz6xfWA-2" value="&lt;span style=&quot;font-size: 30px;&quot;&gt;金融機関&lt;/span&gt;" style="rounded=0;whiteSpace=wrap;html=1;align=right;dashed=1;dashPattern=8 8;verticalAlign=bottom;" parent="cFaB45KztUIKXS-_cTrr-14" vertex="1">
          <mxGeometry x="100" y="427" width="290" height="46" as="geometry" />
        </mxCell>
        <mxCell id="ColBS6U00L5lofz6xfWA-3" value="&lt;span style=&quot;font-size: 30px;&quot;&gt;金融機関名称&lt;/span&gt;" style="rounded=0;whiteSpace=wrap;html=1;align=left;fillColor=#CCCCCC;" parent="cFaB45KztUIKXS-_cTrr-14" vertex="1">
          <mxGeometry x="710" y="427" width="700" height="48" as="geometry" />
        </mxCell>
        <mxCell id="ColBS6U00L5lofz6xfWA-4" value="&lt;span style=&quot;font-size: 30px;&quot;&gt;01234&lt;/span&gt;" style="rounded=0;whiteSpace=wrap;html=1;align=right;fillColor=#CCCCCC;" parent="cFaB45KztUIKXS-_cTrr-14" vertex="1">
          <mxGeometry x="411" y="425" width="249" height="48" as="geometry" />
        </mxCell>
        <mxCell id="ColBS6U00L5lofz6xfWA-5" value="&lt;span style=&quot;font-size: 30px;&quot;&gt;金融機関支店&lt;/span&gt;" style="rounded=0;whiteSpace=wrap;html=1;align=right;dashed=1;dashPattern=8 8;verticalAlign=bottom;" parent="cFaB45KztUIKXS-_cTrr-14" vertex="1">
          <mxGeometry x="100" y="497" width="290" height="46" as="geometry" />
        </mxCell>
        <mxCell id="ColBS6U00L5lofz6xfWA-6" value="&lt;span style=&quot;font-size: 30px;&quot;&gt;支店名称&lt;/span&gt;" style="rounded=0;whiteSpace=wrap;html=1;align=left;fillColor=#CCCCCC;" parent="cFaB45KztUIKXS-_cTrr-14" vertex="1">
          <mxGeometry x="710" y="497" width="700" height="48" as="geometry" />
        </mxCell>
        <mxCell id="ColBS6U00L5lofz6xfWA-7" value="&lt;span style=&quot;font-size: 30px;&quot;&gt;987&lt;/span&gt;" style="rounded=0;whiteSpace=wrap;html=1;align=right;fillColor=#CCCCCC;" parent="cFaB45KztUIKXS-_cTrr-14" vertex="1">
          <mxGeometry x="411" y="495" width="249" height="48" as="geometry" />
        </mxCell>
        <mxCell id="ColBS6U00L5lofz6xfWA-8" value="&lt;span style=&quot;font-size: 30px;&quot;&gt;口座種別&lt;/span&gt;" style="rounded=0;whiteSpace=wrap;html=1;align=right;dashed=1;dashPattern=8 8;verticalAlign=bottom;" parent="cFaB45KztUIKXS-_cTrr-14" vertex="1">
          <mxGeometry x="100" y="567" width="290" height="46" as="geometry" />
        </mxCell>
        <mxCell id="ColBS6U00L5lofz6xfWA-9" value="&lt;span style=&quot;font-size: 30px;&quot;&gt;▼普通口座&lt;/span&gt;" style="rounded=0;whiteSpace=wrap;html=1;align=right;fillColor=#CCCCCC;" parent="cFaB45KztUIKXS-_cTrr-14" vertex="1">
          <mxGeometry x="411" y="565" width="249" height="48" as="geometry" />
        </mxCell>
        <mxCell id="ColBS6U00L5lofz6xfWA-10" value="&lt;span style=&quot;font-size: 30px;&quot;&gt;口座番号&lt;/span&gt;" style="rounded=0;whiteSpace=wrap;html=1;align=right;dashed=1;dashPattern=8 8;verticalAlign=bottom;" parent="cFaB45KztUIKXS-_cTrr-14" vertex="1">
          <mxGeometry x="100" y="639" width="290" height="46" as="geometry" />
        </mxCell>
        <mxCell id="ColBS6U00L5lofz6xfWA-11" value="&lt;span style=&quot;font-size: 30px;&quot;&gt;9876543&lt;/span&gt;" style="rounded=0;whiteSpace=wrap;html=1;align=right;fillColor=#CCCCCC;" parent="cFaB45KztUIKXS-_cTrr-14" vertex="1">
          <mxGeometry x="411" y="637" width="249" height="48" as="geometry" />
        </mxCell>
        <mxCell id="ColBS6U00L5lofz6xfWA-12" value="&lt;span style=&quot;font-size: 30px;&quot;&gt;口座名義人&lt;/span&gt;" style="rounded=0;whiteSpace=wrap;html=1;align=right;dashed=1;dashPattern=8 8;verticalAlign=bottom;" parent="cFaB45KztUIKXS-_cTrr-14" vertex="1">
          <mxGeometry x="100" y="699" width="290" height="46" as="geometry" />
        </mxCell>
        <mxCell id="ColBS6U00L5lofz6xfWA-13" value="&lt;span style=&quot;font-size: 30px;&quot;&gt;ｾｲｼﾞﾀﾞﾝﾀｲｻﾌﾞﾛｳ&lt;/span&gt;" style="rounded=0;whiteSpace=wrap;html=1;align=right;fillColor=#CCCCCC;" parent="cFaB45KztUIKXS-_cTrr-14" vertex="1">
          <mxGeometry x="411" y="697" width="249" height="48" as="geometry" />
        </mxCell>
        <mxCell id="ColBS6U00L5lofz6xfWA-15" value="" style="rounded=1;whiteSpace=wrap;html=1;strokeWidth=3;" parent="cFaB45KztUIKXS-_cTrr-14" vertex="1">
          <mxGeometry x="68" y="220" width="162" height="60" as="geometry" />
        </mxCell>
        <mxCell id="ColBS6U00L5lofz6xfWA-16" value="&lt;span style=&quot;font-size: 30px;&quot;&gt;口座1&lt;br&gt;&lt;/span&gt;" style="rounded=0;whiteSpace=wrap;html=1;align=center;dashed=1;dashPattern=8 8;verticalAlign=bottom;" parent="cFaB45KztUIKXS-_cTrr-14" vertex="1">
          <mxGeometry x="89" y="226" width="110" height="46" as="geometry" />
        </mxCell>
        <mxCell id="ColBS6U00L5lofz6xfWA-17" value="" style="rounded=1;whiteSpace=wrap;html=1;strokeWidth=3;" parent="cFaB45KztUIKXS-_cTrr-14" vertex="1">
          <mxGeometry x="238" y="220" width="162" height="60" as="geometry" />
        </mxCell>
        <mxCell id="ColBS6U00L5lofz6xfWA-18" value="&lt;span style=&quot;font-size: 30px;&quot;&gt;口座2&lt;br&gt;&lt;/span&gt;" style="rounded=0;whiteSpace=wrap;html=1;align=center;dashed=1;dashPattern=8 8;verticalAlign=bottom;" parent="cFaB45KztUIKXS-_cTrr-14" vertex="1">
          <mxGeometry x="259" y="226" width="110" height="46" as="geometry" />
        </mxCell>
        <mxCell id="LKO3ZLn39oALWTYyBSf5-0" value="&lt;span style=&quot;font-size: 30px;&quot;&gt;データ取得期間(自)&lt;/span&gt;" style="rounded=0;whiteSpace=wrap;html=1;align=right;dashed=1;dashPattern=8 8;verticalAlign=bottom;" vertex="1" parent="cFaB45KztUIKXS-_cTrr-14">
          <mxGeometry x="100" y="760" width="290" height="46" as="geometry" />
        </mxCell>
        <mxCell id="LKO3ZLn39oALWTYyBSf5-1" value="&lt;span style=&quot;font-size: 30px;&quot;&gt;2022/12/01&lt;br&gt;&lt;/span&gt;" style="rounded=0;whiteSpace=wrap;html=1;align=right;fillColor=#CCCCCC;" vertex="1" parent="cFaB45KztUIKXS-_cTrr-14">
          <mxGeometry x="411" y="758" width="249" height="48" as="geometry" />
        </mxCell>
        <mxCell id="LKO3ZLn39oALWTYyBSf5-2" value="&lt;span style=&quot;font-size: 30px;&quot;&gt;データ取得期間(至)&lt;/span&gt;" style="rounded=0;whiteSpace=wrap;html=1;align=right;dashed=1;dashPattern=8 8;verticalAlign=bottom;" vertex="1" parent="cFaB45KztUIKXS-_cTrr-14">
          <mxGeometry x="100" y="821" width="290" height="46" as="geometry" />
        </mxCell>
        <mxCell id="LKO3ZLn39oALWTYyBSf5-3" value="&lt;span style=&quot;font-size: 30px;&quot;&gt;2022/12/31&lt;/span&gt;" style="rounded=0;whiteSpace=wrap;html=1;align=right;fillColor=#CCCCCC;" vertex="1" parent="cFaB45KztUIKXS-_cTrr-14">
          <mxGeometry x="411" y="817" width="249" height="48" as="geometry" />
        </mxCell>
      </root>
    </mxGraphModel>
  </diagram>
</mxfile>
